<?xml version="1.0" encoding="UTF-8" standalone="no"?>
<svg width="48px" height="48px" viewBox="0 0 48 48" version="1.1" xmlns="http://www.w3.org/2000/svg" xmlns:xlink="http://www.w3.org/1999/xlink" xmlns:sketch="http://www.bohemiancoding.com/sketch/ns">
    <!-- Generator: Sketch 3.3 (11970) - http://www.bohemiancoding.com/sketch -->
    <title>Cloud</title>
    <desc>Created with Sketch.</desc>
    <defs></defs>
    <g id="Page-1" stroke="none" stroke-width="1" fill="none" fill-rule="evenodd" sketch:type="MSPage">
        <g id="Oval-76-Copy-3-+-Oval-76-+-Path-129" sketch:type="MSLayerGroup" transform="translate(2.000000, 10.000000)">
            <path d="M26.2202707,21.161326 C24.9207038,21.7016847 23.4951895,22 22,22 C15.9248678,22 11,17.0751322 11,11 C11,4.92486775 15.9248678,0 22,0 C26.7567667,0 30.8083372,3.01930367 32.3427889,7.2459884 C33.0358428,7.08506979 33.7579869,7 34.5,7 C39.7467051,7 44,11.2532949 44,16.5 C44,21.7467051 39.7467051,26 34.5,26 C30.9471793,26 27.8498728,24.0497119 26.2202707,21.161326 Z" id="Oval-76-Copy-3" fill="#CFDCEE" sketch:type="MSShapeGroup"></path>
            <path d="M8,26 C3.581722,26 0,22.418278 0,18 C0,13.581722 3.581722,10 8,10 C9.06383937,10 10.0791788,10.2076529 11.0076973,10.5846375 L11.0076973,10.5846375 C11.2260831,4.70196826 16.0639398,0 22,0 C26.7567667,0 30.8083372,3.01930367 32.3427889,7.2459884 L32.3427889,7.2459884 C33.0358428,7.08506979 33.7579869,7 34.5,7 C39.7467051,7 44,11.2532949 44,16.5 C44,21.5789879 40.0142824,25.7270615 35,25.9870679 L35,26 L8,26 Z" id="Oval-76" stroke="#4371BC" stroke-width="2" stroke-linecap="round" stroke-linejoin="round" sketch:type="MSShapeGroup"></path>
            <path d="M22.5,8 L20,14 L24.5,14.5 L22.5,20" id="Path-129" stroke="#4371BC" stroke-width="2" stroke-linecap="round" stroke-linejoin="round" sketch:type="MSShapeGroup"></path>
        </g>
    </g>
</svg>