<?xml version="1.0" encoding="UTF-8" standalone="no"?>
<svg width="48px" height="48px" viewBox="0 0 48 48" version="1.1" xmlns="http://www.w3.org/2000/svg" xmlns:xlink="http://www.w3.org/1999/xlink" xmlns:sketch="http://www.bohemiancoding.com/sketch/ns">
    <!-- Generator: Sketch 3.3 (11970) - http://www.bohemiancoding.com/sketch -->
    <title>Disk</title>
    <desc>Created with Sketch.</desc>
    <defs></defs>
    <g id="Page-1" stroke="none" stroke-width="1" fill="none" fill-rule="evenodd" sketch:type="MSPage">
        <g id="Group" sketch:type="MSLayerGroup" transform="translate(4.000000, 4.000000)">
            <path d="M24.2064021,16.4363835 C27.8298708,12.9871489 31.504533,9.49546699 34.995689,6.00431099 C43.001437,14.010059 43.001437,26.989941 34.995689,34.995689 C26.989941,43.001437 14.010059,43.001437 6.00431099,34.995689 C8.93364361,31.480153 12.4745404,27.811232 16.2982147,24.0491267 C17.3071066,25.242338 18.8150726,26 20.5,26 C23.5375661,26 26,23.5375661 26,20.5 C26,18.8903428 25.3085196,17.4421895 24.2064021,16.4363835 Z" id="Oval-1-Copy-4" fill="#CFDCEE" sketch:type="MSShapeGroup"></path>
            <circle id="Oval-1-Copy-3" stroke="#4371BC" stroke-width="2" stroke-linecap="round" stroke-linejoin="round" sketch:type="MSShapeGroup" cx="20.5" cy="20.5" r="5.5"></circle>
            <path d="M20.5,30 L20.5,30 C25.7467051,30 30,25.7467051 30,20.5" id="Oval-1-Copy-6" stroke="#4371BC" stroke-width="2" stroke-linecap="round" stroke-linejoin="round" sketch:type="MSShapeGroup"></path>
            <circle id="Oval-1-Copy-5" stroke="#4371BC" stroke-width="2" stroke-linecap="round" stroke-linejoin="round" sketch:type="MSShapeGroup" cx="20.5" cy="20.5" r="20.5"></circle>
        </g>
    </g>
</svg>