<?xml version="1.0" encoding="UTF-8" standalone="no"?>
<svg width="48px" height="48px" viewBox="0 0 48 48" version="1.1" xmlns="http://www.w3.org/2000/svg" xmlns:xlink="http://www.w3.org/1999/xlink" xmlns:sketch="http://www.bohemiancoding.com/sketch/ns">
    <!-- Generator: Sketch 3.3 (11970) - http://www.bohemiancoding.com/sketch -->
    <title>Female</title>
    <desc>Created with Sketch.</desc>
    <defs></defs>
    <g id="Page-1" stroke="none" stroke-width="1" fill="none" fill-rule="evenodd" sketch:type="MSPage">
        <g id="Group-Copy" sketch:type="MSLayerGroup" transform="translate(4.000000, 2.000000)">
            <path d="M32.2467713,10.0406521 C30.4055652,4.77295384 25.39386,1 19.5,1 C12.0425165,1 6,7.04474453 6,14.5013148 L6,19.4986852 C6,26.9622448 12.0441559,33 19.5,33 C19.6673971,33 19.8340812,32.9969543 20,32.9909153 L20,14 C20,14 28.0157102,10.4610216 32.2467713,10.0406521 Z" id="Rectangle-1" fill="#CFDCEE" sketch:type="MSShapeGroup"></path>
            <path d="M35,19 L29,29 L40,29" id="Path-7-Copy" stroke="#4371BC" stroke-width="2" stroke-linecap="round" stroke-linejoin="round" fill="#CFDCEE" sketch:type="MSShapeGroup" transform="translate(34.500000, 24.000000) scale(-1, 1) translate(-34.500000, -24.000000) "></path>
            <rect id="Rectangle-1-Copy" stroke="#4371BC" stroke-width="2" stroke-linecap="round" stroke-linejoin="round" sketch:type="MSShapeGroup" x="5" y="0" width="30" height="33" rx="26"></rect>
            <path d="M26,21 C26,19.8954305 25.1045695,19 24,19 C22.8954305,19 22,19.8954305 22,21" id="Oval-1" stroke="#4371BC" stroke-width="2" stroke-linecap="round" stroke-linejoin="round" sketch:type="MSShapeGroup"></path>
            <path d="M17,21 C17,19.8954305 16.1045695,19 15,19 C13.8954305,19 13,19.8954305 13,21" id="Oval-1-Copy" stroke="#4371BC" stroke-width="2" stroke-linecap="round" stroke-linejoin="round" sketch:type="MSShapeGroup"></path>
            <path d="M6,15 C6,15 9.5,11.5 15,13.5 C20.5,15.5 32,10.0000001 33,10" id="Path-3" stroke="#4371BC" stroke-width="2" stroke-linecap="round" stroke-linejoin="round" sketch:type="MSShapeGroup"></path>
            <path d="M1,37.7539513 C1,34.023847 4.01286052,31.2231749 7.75,31.5 L14.5,32 L22,43.0000001 L1,45 L1,37.7539513 Z" id="Rectangle-2" fill="#CFDCEE" sketch:type="MSShapeGroup"></path>
            <rect id="Rectangle-2-Copy" stroke="#4371BC" stroke-width="2" stroke-linecap="round" stroke-linejoin="round" sketch:type="MSShapeGroup" x="1" y="31" width="37" height="14"></rect>
            <polygon id="Triangle-1" stroke="#4371BC" stroke-width="2" stroke-linecap="round" stroke-linejoin="round" sketch:type="MSShapeGroup" transform="translate(20.000000, 36.000000) scale(-1, -1) translate(-20.000000, -36.000000) " points="20 32 26 40 14 40 "></polygon>
            <path d="M6,19 L0,29 L11,29" id="Path-7" stroke="#4371BC" stroke-width="2" stroke-linecap="round" stroke-linejoin="round" sketch:type="MSShapeGroup"></path>
        </g>
    </g>
</svg>