<?xml version="1.0" encoding="UTF-8" standalone="no"?>
<svg width="48px" height="48px" viewBox="0 0 48 48" version="1.1" xmlns="http://www.w3.org/2000/svg" xmlns:xlink="http://www.w3.org/1999/xlink" xmlns:sketch="http://www.bohemiancoding.com/sketch/ns">
    <!-- Generator: Sketch 3.3 (11970) - http://www.bohemiancoding.com/sketch -->
    <title>Glasses</title>
    <desc>Created with Sketch.</desc>
    <defs></defs>
    <g id="Page-1" stroke="none" stroke-width="1" fill="none" fill-rule="evenodd" sketch:type="MSPage">
        <g id="Group" sketch:type="MSLayerGroup" transform="translate(2.000000, 13.000000)">
            <path d="M10,20 C14.9705627,20 19,15.9705627 19,11 C11.5,11.0000001 6.5,10.9999999 1,11 C1,15.9705627 5.02943725,20 10,20 Z" id="Oval-41-Copy" fill="#CFDCEE" sketch:type="MSShapeGroup"></path>
            <path d="M33,20 C37.9705627,20 42,15.9705627 42,11 C34.5,11.0000001 29.5,10.9999999 24,11 C24,15.9705627 28.0294373,20 33,20 Z" id="Oval-41-Copy-4" fill="#CFDCEE" sketch:type="MSShapeGroup"></path>
            <circle id="Oval-41-Copy-3" stroke="#4371BC" stroke-width="2" stroke-linecap="round" stroke-linejoin="round" sketch:type="MSShapeGroup" cx="33" cy="11" r="9"></circle>
            <circle id="Oval-41-Copy-2" stroke="#4371BC" stroke-width="2" stroke-linecap="round" stroke-linejoin="round" sketch:type="MSShapeGroup" cx="10" cy="11" r="9"></circle>
            <path d="M19,8 L24,8" id="Line" stroke="#4371BC" stroke-width="2" stroke-linecap="square" stroke-linejoin="round" sketch:type="MSShapeGroup"></path>
            <path d="M40,4 L43.5355339,0.464466095" id="Line" stroke="#4371BC" stroke-width="2" stroke-linecap="square" stroke-linejoin="round" sketch:type="MSShapeGroup"></path>
            <path d="M0,4 L3.53553391,0.464466095" id="Line-Copy-13" stroke="#4371BC" stroke-width="2" stroke-linecap="square" stroke-linejoin="round" sketch:type="MSShapeGroup" transform="translate(2.000000, 2.000000) scale(-1, 1) translate(-2.000000, -2.000000) "></path>
        </g>
    </g>
</svg>