<?xml version="1.0" encoding="UTF-8" standalone="no"?>
<svg width="48px" height="48px" viewBox="0 0 48 48" version="1.1" xmlns="http://www.w3.org/2000/svg" xmlns:xlink="http://www.w3.org/1999/xlink" xmlns:sketch="http://www.bohemiancoding.com/sketch/ns">
    <!-- Generator: Sketch 3.3 (11970) - http://www.bohemiancoding.com/sketch -->
    <title>Hearth</title>
    <desc>Created with Sketch.</desc>
    <defs></defs>
    <g id="Page-1" stroke="none" stroke-width="1" fill="none" fill-rule="evenodd" sketch:type="MSPage">
        <g id="Oval-69-+-Oval-69-Copy-2" sketch:type="MSLayerGroup" transform="translate(3.000000, 7.000000)">
            <path d="M16.5000001,18.2579479 C16.2999244,10.6891328 20.0522212,3.66248251 21,5.08795379 C23.0390505,2.02119619 26.5258114,0 30.4846479,0 C36.7705196,0 41.8662278,2.26315506 41.8662255,11.3815775 C41.8662231,20.5 21,36.5158946 21,36.5158946 C21,36.5158946 16.7303671,26.9726747 16.5000001,18.2579479 Z" id="Oval-69" fill="#CFDCEE" sketch:type="MSShapeGroup"></path>
            <path d="M0.133774527,11.3815775 C0.133774527,1.76315506 5.22948036,0 11.5153521,0 C15.4741886,0 18.9609495,2.02119619 21,5.08795379 C23.0390505,2.02119619 26.5258114,0 30.4846479,0 C36.7705196,0 41.8662278,2.26315506 41.8662255,11.3815775 C41.8662231,20.5 21,36.5158946 21,36.5158946 C21,36.5158946 0.133774527,21 0.133774527,11.3815775 Z" id="Oval-69-Copy-2" stroke="#4371BC" stroke-width="2" stroke-linecap="round" stroke-linejoin="round" sketch:type="MSShapeGroup"></path>
        </g>
    </g>
</svg>