<?xml version="1.0" encoding="UTF-8" standalone="no"?>
<svg width="48px" height="48px" viewBox="0 0 48 48" version="1.1" xmlns="http://www.w3.org/2000/svg" xmlns:xlink="http://www.w3.org/1999/xlink" xmlns:sketch="http://www.bohemiancoding.com/sketch/ns">
    <!-- Generator: Sketch 3.3 (11970) - http://www.bohemiancoding.com/sketch -->
    <title>Male</title>
    <desc>Created with Sketch.</desc>
    <defs></defs>
    <g id="Page-1" stroke="none" stroke-width="1" fill="none" fill-rule="evenodd" sketch:type="MSPage">
        <g id="Group" sketch:type="MSLayerGroup" transform="translate(6.000000, 2.000000)">
            <path d="M31.2893385,10.1643733 C29.483811,4.83213027 24.4399009,1 18.5,1 C11.0425165,1 5,7.04474453 5,14.5013148 L5,19.4986852 C5,26.9622448 11.0441559,33 18.5,33 C18.6673971,33 18.8340812,32.9969543 19,32.9909153 L19,14 C19,14 26.6904064,10.9172616 31.2893385,10.1643733 Z" id="Rectangle-1" fill="#CFDCEE" sketch:type="MSShapeGroup"></path>
            <rect id="Rectangle-1-Copy" stroke="#4371BC" stroke-width="2" stroke-linecap="round" stroke-linejoin="round" sketch:type="MSShapeGroup" x="4" y="0" width="30" height="33" rx="26"></rect>
            <path d="M25,21 C25,19.8954305 24.1045695,19 23,19 C21.8954305,19 21,19.8954305 21,21" id="Oval-1" stroke="#4371BC" stroke-width="2" stroke-linecap="round" stroke-linejoin="round" sketch:type="MSShapeGroup"></path>
            <path d="M16,21 C16,19.8954305 15.1045695,19 14,19 C12.8954305,19 12,19.8954305 12,21" id="Oval-1-Copy" stroke="#4371BC" stroke-width="2" stroke-linecap="round" stroke-linejoin="round" sketch:type="MSShapeGroup"></path>
            <path d="M5,15 C5,15 8.5,11.5 14,13.5 C19.5,15.5 31,10.0000001 32,10" id="Path-3" stroke="#4371BC" stroke-width="2" stroke-linecap="round" stroke-linejoin="round" sketch:type="MSShapeGroup"></path>
            <path d="M0,37.7539513 C0,34.023847 3.01286052,31.2231749 6.75,31.5 L13.5,32 L21,43.0000001 L0,45 L0,37.7539513 Z" id="Rectangle-2" fill="#CFDCEE" sketch:type="MSShapeGroup"></path>
            <rect id="Rectangle-2-Copy" stroke="#4371BC" stroke-width="2" stroke-linecap="round" stroke-linejoin="round" sketch:type="MSShapeGroup" x="0" y="31" width="37" height="14"></rect>
            <polygon id="Triangle-1" stroke="#4371BC" stroke-width="2" stroke-linecap="round" stroke-linejoin="round" sketch:type="MSShapeGroup" transform="translate(19.000000, 36.000000) scale(-1, -1) translate(-19.000000, -36.000000) " points="19 32 25 40 13 40 "></polygon>
        </g>
    </g>
</svg>