<?xml version="1.0" encoding="UTF-8" standalone="no"?>
<svg width="48px" height="48px" viewBox="0 0 48 48" version="1.1" xmlns="http://www.w3.org/2000/svg" xmlns:xlink="http://www.w3.org/1999/xlink" xmlns:sketch="http://www.bohemiancoding.com/sketch/ns">
    <!-- Generator: Sketch 3.3 (11970) - http://www.bohemiancoding.com/sketch -->
    <title>Read</title>
    <desc>Created with Sketch.</desc>
    <defs></defs>
    <g id="Page-1" stroke="none" stroke-width="1" fill="none" fill-rule="evenodd" sketch:type="MSPage">
        <g id="Rectangle-45-+-Rectangle-45-Copy" sketch:type="MSLayerGroup" transform="translate(4.000000, 5.000000)" stroke="#4371BC" stroke-width="2" stroke-linecap="round" stroke-linejoin="round">
            <path d="M0,1.9999204 C0,0.895394863 0.898212381,0 1.99079514,0 L18.0092049,0 C19.1086907,0 20,0.889892578 20,1.99970728 L20,34.0002927 C20,35.1047006 19.1723183,35.6444979 18.1635439,35.2265839 C18.1635439,35.2265839 15.7402688,34.1240269 14.5,34 C10.4007989,33.5900799 1.99147251,33.9331949 1.99147251,33.9331949 C0.891612613,33.9700903 0,33.1080589 0,32.0000796 L0,1.9999204 Z" id="Rectangle-45" fill="#CFDCEE" sketch:type="MSShapeGroup"></path>
            <path d="M20,1.9999204 C20,0.895394863 20.8982124,0 21.9907951,0 L38.0092049,0 C39.1086907,0 40,0.889892578 40,1.99970728 L40,34.0002927 C40,35.1047006 39.1723183,35.6444979 38.1635439,35.2265839 C38.1635439,35.2265839 35.7402688,34.1240269 34.5,34 C30.4007989,33.5900799 21.9914725,33.9331949 21.9914725,33.9331949 C20.8916126,33.9700903 20,33.1080589 20,32.0000796 L20,1.9999204 Z" id="Rectangle-45-Copy" sketch:type="MSShapeGroup" transform="translate(30.000000, 17.683871) scale(-1, 1) translate(-30.000000, -17.683871) "></path>
        </g>
    </g>
</svg>