<?xml version="1.0" encoding="UTF-8" standalone="no"?>
<svg width="48px" height="48px" viewBox="0 0 48 48" version="1.1" xmlns="http://www.w3.org/2000/svg" xmlns:xlink="http://www.w3.org/1999/xlink" xmlns:sketch="http://www.bohemiancoding.com/sketch/ns">
    <!-- Generator: Sketch 3.3 (11970) - http://www.bohemiancoding.com/sketch -->
    <title>Server</title>
    <desc>Created with Sketch.</desc>
    <defs></defs>
    <g id="Page-1" stroke="none" stroke-width="1" fill="none" fill-rule="evenodd" sketch:type="MSPage">
        <g id="Rectangle-95-+-Rectangle-95-Copy-+-Rectangle-97" sketch:type="MSLayerGroup" transform="translate(4.000000, 4.000000)" stroke="#4371BC" stroke-width="2" stroke-linecap="round" stroke-linejoin="round">
            <path d="M11,24 L0,24 L0,40 L40,40 L40,24 L29,24 C29,28.9705627 24.9705627,33 20,33 C15.0294373,33 11,28.9705627 11,24 Z" id="Rectangle-95" fill="#CFDCEE" sketch:type="MSShapeGroup"></path>
            <path d="M11,8 L0,8 L0,24 L40,24 L40,8 L29,8 C29,12.9705627 24.9705627,17 20,17 C15.0294373,17 11,12.9705627 11,8 Z" id="Rectangle-95-Copy" sketch:type="MSShapeGroup"></path>
            <path d="M3,0 L37,0 L40,8 L0,8 L3,0 Z" id="Rectangle-97" fill="#CFDCEE" sketch:type="MSShapeGroup"></path>
        </g>
    </g>
</svg>