<?xml version="1.0" encoding="UTF-8" standalone="no"?>
<svg width="48px" height="48px" viewBox="0 0 48 48" version="1.1" xmlns="http://www.w3.org/2000/svg" xmlns:xlink="http://www.w3.org/1999/xlink" xmlns:sketch="http://www.bohemiancoding.com/sketch/ns">
    <!-- Generator: Sketch 3.3 (11970) - http://www.bohemiancoding.com/sketch -->
    <title>Settings</title>
    <desc>Created with Sketch.</desc>
    <defs></defs>
    <g id="Page-1" stroke="none" stroke-width="1" fill="none" fill-rule="evenodd" sketch:type="MSPage">
        <g id="Rectangle-11-Copy-4-+-Rectangle-11" sketch:type="MSLayerGroup" transform="translate(2.000000, 3.000000)">
            <path d="M23,0.0559093767 C25.4056315,0.417985435 27.25,2.49483434 27.25,5.00026545 L27.25,6.74137698 C27.8511578,6.93470631 28.4363017,7.16374618 29.0029337,7.42599849 L30.2047636,6.2241686 C32.1574887,4.27144348 35.3273708,4.27533263 37.2760191,6.2239809 C39.2286406,8.17660236 39.2276056,11.3434622 37.2758314,13.2952364 L36.2439966,14.3270712 C36.5670168,14.9447405 36.8496203,15.5868869 37.0882965,16.25 L38.4997345,16.25 C41.2613049,16.25 43.5,18.4941952 43.5,21.25 C43.5,24.0114237 41.2599601,26.25 38.4997345,26.25 L37.258623,26.25 C37.0265548,26.9716163 36.7430311,27.6701582 36.4123726,28.3413048 L37.2758314,29.2047636 C39.2285565,31.1574887 39.2246674,34.3273708 37.2760191,36.2760191 C35.3233976,38.2286406 32.1565378,38.2276056 30.2047636,36.2758314 L29.3413048,35.4123726 C28.6701582,35.7430311 27.9716163,36.0265548 27.25,36.258623 L27.25,37.4997345 C27.25,40.0059404 25.4016599,42.0815013 23,42.4439285 L23,25.9725356 C25.2499752,25.7238135 27,23.8162768 27,21.5 C27,19.1837232 25.2499752,17.2761865 23,17.0274644 L23,0.0559093767 Z" id="Rectangle-11-Copy-4" fill="#CFDCEE" sketch:type="MSShapeGroup"></path>
            <path d="M17.25,6.91170348 L17.25,5.00026545 C17.25,2.2386951 19.4941952,0 22.25,0 C25.0114237,0 27.25,2.24003992 27.25,5.00026545 L27.25,6.74137698 C27.8511578,6.93470631 28.4363017,7.16374618 29.0029337,7.42599849 L30.2047636,6.2241686 C32.1574887,4.27144348 35.3273708,4.27533263 37.2760191,6.2239809 C39.2286406,8.17660236 39.2276056,11.3434622 37.2758314,13.2952364 L36.2439966,14.3270712 C36.5670168,14.9447405 36.8496203,15.5868869 37.0882965,16.25 L38.4997345,16.25 C41.2613049,16.25 43.5,18.4941952 43.5,21.25 C43.5,24.0114237 41.2599601,26.25 38.4997345,26.25 L37.258623,26.25 C37.0265548,26.9716163 36.7430311,27.6701582 36.4123726,28.3413048 L37.2758314,29.2047636 C39.2285565,31.1574887 39.2246674,34.3273708 37.2760191,36.2760191 C35.3233976,38.2286406 32.1565378,38.2276056 30.2047636,36.2758314 L29.3413048,35.4123726 C28.6701582,35.7430311 27.9716163,36.0265548 27.25,36.258623 L27.25,37.4997345 C27.25,40.2613049 25.0058048,42.5 22.25,42.5 C19.4885763,42.5 17.25,40.2599601 17.25,37.4997345 L17.25,36.0882965 C16.5868869,35.8496203 15.9447405,35.5670168 15.3270712,35.2439966 L14.2952364,36.2758314 C12.3425113,38.2285565 9.17262917,38.2246674 7.2239809,36.2760191 C5.27135944,34.3233976 5.27239441,31.1565378 7.2241686,29.2047636 L8.42599849,28.0029337 C8.16374618,27.4363017 7.93470631,26.8511578 7.74137698,26.25 L6.00026545,26.25 C3.2386951,26.25 1,24.0058048 1,21.25 C1,18.4885763 3.24003992,16.25 6.00026545,16.25 L7.91170348,16.25 C8.10796117,15.7047381 8.33391973,15.1736526 8.58762739,14.6586952 L7.2241686,13.2952364 C5.27144348,11.3425113 5.27533263,8.17262917 7.2239809,6.2239809 C9.17660236,4.27135944 12.3434622,4.27239441 14.2952364,6.2241686 L15.6586952,7.58762739 C16.1736526,7.33391973 16.7047381,7.10796117 17.25,6.91170348 L17.25,6.91170348 Z M22.5,26 C24.9852814,26 27,23.9852814 27,21.5 C27,19.0147186 24.9852814,17 22.5,17 C20.0147186,17 18,19.0147186 18,21.5 C18,23.9852814 20.0147186,26 22.5,26 Z" id="Rectangle-11" stroke="#4371BC" stroke-width="2" stroke-linecap="round" stroke-linejoin="round" sketch:type="MSShapeGroup"></path>
        </g>
    </g>
</svg>