<?xml version="1.0" encoding="UTF-8" standalone="no"?>
<svg width="48px" height="48px" viewBox="0 0 48 48" version="1.1" xmlns="http://www.w3.org/2000/svg" xmlns:xlink="http://www.w3.org/1999/xlink" xmlns:sketch="http://www.bohemiancoding.com/sketch/ns">
    <!-- Generator: Sketch 3.3 (11970) - http://www.bohemiancoding.com/sketch -->
    <title>Switch</title>
    <desc>Created with Sketch.</desc>
    <defs></defs>
    <g id="Page-1" stroke="none" stroke-width="1" fill="none" fill-rule="evenodd" sketch:type="MSPage">
        <g id="Rectangle-20-+-Oval-9-+-Rectangle-20-+-Oval-9-Copy" sketch:type="MSLayerGroup" transform="translate(4.000000, 4.000000)" stroke="#4371BC" stroke-width="2" stroke-linecap="round" stroke-linejoin="round">
            <g id="Rectangle-20-+-Oval-9" sketch:type="MSShapeGroup">
                <rect id="Rectangle-20" x="0" y="0" width="40" height="18" rx="13"></rect>
                <circle id="Oval-9" fill="#CFDCEE" cx="9" cy="9" r="6"></circle>
            </g>
            <g id="Rectangle-20-+-Oval-9-Copy" transform="translate(20.000000, 31.000000) scale(-1, 1) translate(-20.000000, -31.000000) translate(0.000000, 22.000000)" fill="#CFDCEE" sketch:type="MSShapeGroup">
                <path d="M0,9 C0,4.02943725 4.03700043,0 9.00170731,0 L30.9982927,0 C35.9697984,0 40,4.02834436 40,9 C40,13.9705627 35.9629996,18 30.9982927,18 L9.00170731,18 C4.03020164,18 0,13.9716556 0,9 Z M9,15 C12.3137085,15 15,12.3137085 15,9 C15,5.6862915 12.3137085,3 9,3 C5.6862915,3 3,5.6862915 3,9 C3,12.3137085 5.6862915,15 9,15 Z" id="Rectangle-20"></path>
            </g>
        </g>
    </g>
</svg>