<?xml version="1.0" encoding="UTF-8" standalone="no"?>
<svg width="48px" height="48px" viewBox="0 0 48 48" version="1.1" xmlns="http://www.w3.org/2000/svg" xmlns:xlink="http://www.w3.org/1999/xlink" xmlns:sketch="http://www.bohemiancoding.com/sketch/ns">
    <!-- Generator: Sketch 3.3 (11970) - http://www.bohemiancoding.com/sketch -->
    <title>Unlock</title>
    <desc>Created with Sketch.</desc>
    <defs></defs>
    <g id="Page-1" stroke="none" stroke-width="1" fill="none" fill-rule="evenodd" sketch:type="MSPage">
        <g id="Group-Copy-2" sketch:type="MSLayerGroup" transform="translate(22.000000, 25.500000) scale(-1, 1) translate(-22.000000, -25.500000) translate(4.000000, 0.000000)">
            <path d="M29,19 C20.7157288,19 14,25.7157288 14,34 C14,42.2842712 20.7157288,49 29,49 L29,19 Z" id="Oval-11" fill="#CFDCEE" sketch:type="MSShapeGroup" transform="translate(21.500000, 34.000000) scale(-1, 1) rotate(-30.000000) translate(-21.500000, -34.000000) "></path>
            <circle id="Oval-11-Copy" stroke="#4371BC" stroke-width="2" stroke-linecap="round" stroke-linejoin="round" sketch:type="MSShapeGroup" cx="15" cy="30" r="15"></circle>
            <path d="M15,27 L15,35" id="Line" stroke="#4371BC" stroke-width="2" stroke-linecap="square" stroke-linejoin="round" sketch:type="MSShapeGroup"></path>
            <path d="M14,7.5 C14,5.01471863 16.0058587,3 18.5067503,3 L23.4932497,3 C25.9822591,3 28,5.01977567 28,7.5 L28,12" id="Rectangle-24" stroke="#4371BC" stroke-width="2" stroke-linecap="round" stroke-linejoin="round" sketch:type="MSShapeGroup" transform="translate(21.000000, 7.500000) rotate(-334.000000) translate(-21.000000, -7.500000) "></path>
        </g>
    </g>
</svg>