<?xml version="1.0" encoding="UTF-8" standalone="no"?>
<svg width="48px" height="48px" viewBox="0 0 48 48" version="1.1" xmlns="http://www.w3.org/2000/svg" xmlns:xlink="http://www.w3.org/1999/xlink" xmlns:sketch="http://www.bohemiancoding.com/sketch/ns">
    <!-- Generator: Sketch 3.3 (11970) - http://www.bohemiancoding.com/sketch -->
    <title>Wheels</title>
    <desc>Created with Sketch.</desc>
    <defs></defs>
    <g id="Page-1" stroke="none" stroke-width="1" fill="none" fill-rule="evenodd" sketch:type="MSPage">
        <g id="Rectangle-47-+-Oval-49" sketch:type="MSLayerGroup" transform="translate(4.000000, 4.000000)" stroke="#4371BC" stroke-width="2" stroke-linecap="round" stroke-linejoin="round">
            <path d="M28.0068971,2.94619343 C28.2311713,1.23523766 28.4212079,0 28.4212079,0 L31.8140534,0 C31.8140534,0 32.0040899,1.23523766 32.2283642,2.94619343 C32.9846068,3.13645585 33.701166,3.42659984 34.3631973,3.80178116 C35.7192434,2.76045142 36.7151668,2.03010764 36.7151668,2.03010764 L39.1142708,4.42921169 C39.1142708,4.42921169 38.4134961,5.38481354 37.4060966,6.6984352 C37.8426758,7.38707196 38.1843485,8.1418194 38.4127197,8.94428247 C40.0114437,9.15602743 41.1443785,9.33032508 41.1443785,9.33032508 L41.1443785,12.7231706 C41.1443785,12.7231706 40.0792182,12.8870414 38.5570825,13.0900271 C38.3686917,13.9874593 38.0407695,14.8335527 37.5970568,15.6045665 C38.500963,16.7879552 39.1142708,17.624284 39.1142708,17.624284 L36.7151668,20.023388 C36.7151668,20.023388 35.9166361,19.4377989 34.7760524,18.5677015 C33.9808569,19.0791261 33.0961537,19.4634412 32.1506461,19.6919436 C31.9618816,21.0926124 31.8140534,22.0534956 31.8140534,22.0534956 L28.4212079,22.0534956 C28.4212079,22.0534956 28.2733797,21.0926124 28.0846152,19.6919436 C27.1391075,19.4634412 26.2544043,19.0791261 25.4592089,18.5677015 C24.3186252,19.4377989 23.5200945,20.023388 23.5200945,20.023388 L21.1209905,17.624284 C21.1209905,17.624284 21.7342982,16.7879552 22.6382045,15.6045665 C22.1944918,14.8335527 21.8665695,13.9874593 21.6781788,13.0900271 C20.1560431,12.8870414 19.0908828,12.7231706 19.0908828,12.7231706 L19.0908828,9.33032508 C19.0908828,9.33032508 20.2238175,9.15602743 21.8225416,8.94428247 C22.0509128,8.1418194 22.3925855,7.38707196 22.8291647,6.6984352 C21.8217651,5.38481354 21.1209905,4.42921169 21.1209905,4.42921169 L23.5200945,2.03010764 C23.5200945,2.03010764 24.5160178,2.76045142 25.872064,3.80178116 C26.5340953,3.42659984 27.2506544,3.13645585 28.0068971,2.94619343 Z" id="Rectangle-47" sketch:type="MSShapeGroup"></path>
            <path d="M9.00689709,21.9461934 C9.23117134,20.2352377 9.4212079,19 9.4212079,19 L12.8140534,19 C12.8140534,19 13.0040899,20.2352377 13.2283642,21.9461934 C13.9846068,22.1364559 14.701166,22.4265998 15.3631973,22.8017812 C16.7192434,21.7604514 17.7151668,21.0301076 17.7151668,21.0301076 L20.1142708,23.4292117 C20.1142708,23.4292117 19.4134961,24.3848135 18.4060966,25.6984352 C18.8426758,26.387072 19.1843485,27.1418194 19.4127197,27.9442825 C21.0114437,28.1560274 22.1443785,28.3303251 22.1443785,28.3303251 L22.1443785,31.7231706 C22.1443785,31.7231706 21.0792182,31.8870414 19.5570825,32.0900271 C19.3686917,32.9874593 19.0407695,33.8335527 18.5970568,34.6045665 C19.500963,35.7879552 20.1142708,36.624284 20.1142708,36.624284 L17.7151668,39.023388 C17.7151668,39.023388 16.9166361,38.4377989 15.7760524,37.5677015 C14.9808569,38.0791261 14.0961537,38.4634412 13.1506461,38.6919436 C12.9618816,40.0926124 12.8140534,41.0534956 12.8140534,41.0534956 L9.4212079,41.0534956 C9.4212079,41.0534956 9.27337971,40.0926124 9.08461516,38.6919436 C8.13910753,38.4634412 7.25440434,38.0791261 6.4592089,37.5677015 C5.31862516,38.4377989 4.5200945,39.023388 4.5200945,39.023388 L2.12099046,36.624284 C2.12099046,36.624284 2.73429824,35.7879552 3.63820451,34.6045665 C3.1944918,33.8335527 2.86656954,32.9874593 2.67817878,32.0900271 C1.15604309,31.8870414 0.0908828168,31.7231706 0.0908828168,31.7231706 L0.0908828168,28.3303251 C0.0908828168,28.3303251 1.22381754,28.1560274 2.82254158,27.9442825 C3.05091281,27.1418194 3.39258552,26.387072 3.82916467,25.6984352 C2.82176514,24.3848135 2.12099046,23.4292117 2.12099046,23.4292117 L4.5200945,21.0301076 C4.5200945,21.0301076 5.51601785,21.7604514 6.87206395,22.8017812 C7.53409531,22.4265998 8.25065444,22.1364559 9.00689709,21.9461934 Z" id="Rectangle-47-Copy-4" sketch:type="MSShapeGroup"></path>
            <ellipse id="Oval-49" fill="#CFDCEE" sketch:type="MSShapeGroup" cx="30.2191219" cy="11.5701314" rx="2.89253284" ry="2.89253284"></ellipse>
            <ellipse id="Oval-49-Copy" fill="#CFDCEE" sketch:type="MSShapeGroup" cx="11.2191219" cy="30.5701314" rx="2.89253284" ry="2.89253284"></ellipse>
        </g>
    </g>
</svg>